Coordinates
version=1
nRows=12
nColumns=24
inDegrees=yes

Units are S.I. units (second, meters, Newtons, ...)
Angles are in degrees.

endheader
time	pelvis_tilt	pelvis_list	pelvis_rotation	pelvis_tx	pelvis_ty	pelvis_tz	hip_flexion_r	hip_adduction_r	hip_rotation_r	knee_angle_r	ankle_angle_r	subtalar_angle_r	mtp_angle_r	hip_flexion_l	hip_adduction_l	hip_rotation_l	knee_angle_l	ankle_angle_l	subtalar_angle_l	mtp_angle_l	lumbar_extension	lumbar_bending	lumbar_rotation
      4.72000000	     12.06375431	     -0.56483767	     10.79859578	      0.26194153	      0.75315316	     -0.24236539	     -4.36323732	      6.38703689	      0.86877587	    -19.27159407	     28.34192841	      6.99868255	      0.00000000	     12.24856831	     -0.17555350	      1.57777762	    -69.55167385	     19.26667443	     -3.91141934	      0.00000000	    -29.10621945	      7.08734383	     -6.96178855
      4.72500000	     12.11658486	     -0.58497513	     10.36662331	      0.26920948	      0.75362301	     -0.24220641	     -5.32779230	      6.41095132	      0.99010896	    -18.64580687	     28.54929145	      7.52548415	      0.00000000	     13.01762373	     -0.09977724	      1.05681747	    -68.53237579	     19.57863882	     -4.11813367	      0.00000000	    -29.31880287	      7.00188785	     -6.42910819
      4.73000000	     12.20254711	     -0.57850447	      9.91224491	      0.27648141	      0.75404163	     -0.24205384	     -6.32722980	      6.38831980	      1.09618934	    -18.03747238	     28.80427477	      8.14178457	      0.00000000	     13.70197673	     -0.01035118	      0.53751381	    -67.40500728	     19.82459982	     -4.28894368	      0.00000000	    -29.57787715	      6.88378870	     -5.87499362
      4.73500000	     12.29062081	     -0.59910831	      9.47292596	      0.28373841	      0.75434186	     -0.24192807	     -7.31725828	      6.37908418	      1.16149181	    -17.44056205	     29.05413425	      8.79584690	      0.00000000	     14.36601941	      0.04477342	      0.05228212	    -66.20896884	     20.04936506	     -4.44130234	      0.00000000	    -29.83957660	      6.80429039	     -5.33712215
      4.74000000	     12.39703548	     -0.62804481	      9.01446141	      0.29098826	      0.75455046	     -0.24180972	     -8.31545799	      6.35589624	      1.19210838	    -16.86263692	     29.33209120	      9.50882548	      0.00000000	     14.97642803	      0.07942050	     -0.42153531	    -64.93416889	     20.24528089	     -4.55235667	      0.00000000	    -30.13067837	      6.72974064	     -4.78350773
      4.74500000	     12.54577998	     -0.61418520	      8.59017090	      0.29825703	      0.75471028	     -0.24171986	     -9.37095801	      6.28086720	      1.12703310	    -16.28277306	     29.67510458	     10.33583303	      0.00000000	     15.49083561	      0.16062859	     -0.83530375	    -63.55483417	     20.40800757	     -4.62411953	      0.00000000	    -30.46780227	      6.62169721	     -4.31737315
      4.75000000	     12.60574978	     -0.77428817	      8.13256559	      0.30546610	      0.75461271	     -0.24160844	    -10.27168819	      6.36722001	      1.16212312	    -15.75434793	     29.87884222	     10.98384207	      0.00000000	     16.13201873	      0.04130413	     -1.25686773	    -62.17800052	     20.59900181	     -4.65820957	      0.00000000	    -30.70538385	      6.67611775	     -3.70190924
      4.75500000	     12.72868988	     -0.86081089	      7.65220329	      0.31270282	      0.75450898	     -0.24150063	    -11.25163826	      6.36017471	      1.17468114	    -15.24296280	     30.18713606	     11.75045712	      0.00000000	     16.62776749	     -0.01689913	     -1.68298213	    -60.67389253	     20.77736839	     -4.58827646	      0.00000000	    -31.02286173	      6.64698495	     -3.10943593
      4.76000000	     12.83615595	     -1.00276915	      7.19433809	      0.31993233	      0.75426965	     -0.24140369	    -12.20468173	      6.40321259	      1.15577068	    -14.73549928	     30.45577217	     12.48574064	      0.00000000	     17.12408824	     -0.12827871	     -2.04182069	    -59.11923397	     20.95374619	     -4.48695992	      0.00000000	    -31.31938972	      6.67736351	     -2.53497980
      4.76500000	     13.01009746	     -1.06493648	      6.76151372	      0.32718890	      0.75402192	     -0.24138132	    -13.24886580	      6.35110586	      1.03763606	    -14.22343137	     30.83214462	     13.34719481	      0.00000000	     17.47764969	     -0.14760261	     -2.35236452	    -57.44622249	     21.10554399	     -4.29550892	      0.00000000	    -31.69077204	      6.65013926	     -2.05576896
      4.77000000	     13.10987614	     -1.25763957	      6.29057481	      0.33440214	      0.75357047	     -0.24130675	    -14.17197015	      6.41930877	      1.04157486	    -13.75821583	     31.11579485	     14.06077693	      0.00000000	     17.91307181	     -0.31765836	     -2.65131179	    -55.75359292	     21.28377467	     -4.02364748	      0.00000000	    -31.98532808	      6.72297926	     -1.44716656
      4.77500000	     13.18899628	     -1.51884085	      5.81330737	      0.34159640	      0.75299623	     -0.24123458	    -15.05130227	      6.54605115	      1.06396176	    -13.32712054	     31.33204012	     14.70128020	      0.00000000	     18.34725922	     -0.56387095	     -2.91592315	    -54.00994195	     21.46769803	     -3.70721058	      0.00000000	    -32.26203864	      6.85875049	     -0.78185003
